<?xml version="1.0" encoding="utf-8"?>
<svg xmlns="http://www.w3.org/2000/svg" xmlns:xlink="http://www.w3.org/1999/xlink" width="5400px" height="5600px" viewBox="0 0 5400 5600" version="1.1">
    <rect width="5400px" height="5600px" x="0px" y="0px" style="fill:#ffffff;" />
    <image x="0px" y="0px" width="540px" height="800px" xlink:href="./output/card69.jpg"/><image x="540px" y="0px" width="540px" height="800px" xlink:href="./output/card70.jpg"/><image x="1080px" y="0px" width="540px" height="800px" xlink:href="./output/card71.jpg"/><image x="1620px" y="0px" width="540px" height="800px" xlink:href="./output/card72.jpg"/><image x="2160px" y="0px" width="540px" height="800px" xlink:href="./output/card73.jpg"/><image x="2700px" y="0px" width="540px" height="800px" xlink:href="./output/card74.jpg"/><image x="3240px" y="0px" width="540px" height="800px" xlink:href="./output/card75.jpg"/><image x="3780px" y="0px" width="540px" height="800px" xlink:href="./output/card76.jpg"/><image x="4320px" y="0px" width="540px" height="800px" xlink:href="./output/card77.jpg"/><image x="4860px" y="0px" width="540px" height="800px" xlink:href="./output/card78.jpg"/><image x="0px" y="800px" width="540px" height="800px" xlink:href="./output/card79.jpg"/><image x="540px" y="800px" width="540px" height="800px" xlink:href="./output/card80.jpg"/><image x="1080px" y="800px" width="540px" height="800px" xlink:href="./output/card81.jpg"/><image x="1620px" y="800px" width="540px" height="800px" xlink:href="./output/card82.jpg"/><image x="2160px" y="800px" width="540px" height="800px" xlink:href="./output/card83.jpg"/><image x="2700px" y="800px" width="540px" height="800px" xlink:href="./output/card84.jpg"/><image x="3240px" y="800px" width="540px" height="800px" xlink:href="./output/card85.jpg"/><image x="3780px" y="800px" width="540px" height="800px" xlink:href="./output/card86.jpg"/><image x="4320px" y="800px" width="540px" height="800px" xlink:href="./output/card87.jpg"/><image x="4860px" y="800px" width="540px" height="800px" xlink:href="./output/card88.jpg"/><image x="0px" y="1600px" width="540px" height="800px" xlink:href="./output/card89.jpg"/>
</svg>
