<?xml version="1.0" encoding="utf-8"?>
<svg xmlns="http://www.w3.org/2000/svg" xmlns:xlink="http://www.w3.org/1999/xlink" width="5400px" height="5600px" viewBox="0 0 5400 5600" version="1.1">
    <rect width="5400px" height="5600px" x="0px" y="0px" style="fill:#ffffff;" />
    <image x="0px" y="0px" width="540px" height="800px" xlink:href="./output/card0.jpg"/><image x="540px" y="0px" width="540px" height="800px" xlink:href="./output/card1.jpg"/><image x="1080px" y="0px" width="540px" height="800px" xlink:href="./output/card2.jpg"/><image x="1620px" y="0px" width="540px" height="800px" xlink:href="./output/card3.jpg"/><image x="2160px" y="0px" width="540px" height="800px" xlink:href="./output/card4.jpg"/><image x="2700px" y="0px" width="540px" height="800px" xlink:href="./output/card5.jpg"/><image x="3240px" y="0px" width="540px" height="800px" xlink:href="./output/card6.jpg"/><image x="3780px" y="0px" width="540px" height="800px" xlink:href="./output/card7.jpg"/><image x="4320px" y="0px" width="540px" height="800px" xlink:href="./output/card8.jpg"/><image x="4860px" y="0px" width="540px" height="800px" xlink:href="./output/card9.jpg"/><image x="0px" y="800px" width="540px" height="800px" xlink:href="./output/card10.jpg"/><image x="540px" y="800px" width="540px" height="800px" xlink:href="./output/card11.jpg"/><image x="1080px" y="800px" width="540px" height="800px" xlink:href="./output/card12.jpg"/><image x="1620px" y="800px" width="540px" height="800px" xlink:href="./output/card13.jpg"/><image x="2160px" y="800px" width="540px" height="800px" xlink:href="./output/card14.jpg"/><image x="2700px" y="800px" width="540px" height="800px" xlink:href="./output/card15.jpg"/><image x="3240px" y="800px" width="540px" height="800px" xlink:href="./output/card16.jpg"/><image x="3780px" y="800px" width="540px" height="800px" xlink:href="./output/card17.jpg"/><image x="4320px" y="800px" width="540px" height="800px" xlink:href="./output/card18.jpg"/><image x="4860px" y="800px" width="540px" height="800px" xlink:href="./output/card19.jpg"/><image x="0px" y="1600px" width="540px" height="800px" xlink:href="./output/card20.jpg"/><image x="540px" y="1600px" width="540px" height="800px" xlink:href="./output/card21.jpg"/><image x="1080px" y="1600px" width="540px" height="800px" xlink:href="./output/card22.jpg"/><image x="1620px" y="1600px" width="540px" height="800px" xlink:href="./output/card23.jpg"/><image x="2160px" y="1600px" width="540px" height="800px" xlink:href="./output/card24.jpg"/><image x="2700px" y="1600px" width="540px" height="800px" xlink:href="./output/card25.jpg"/><image x="3240px" y="1600px" width="540px" height="800px" xlink:href="./output/card26.jpg"/><image x="3780px" y="1600px" width="540px" height="800px" xlink:href="./output/card27.jpg"/><image x="4320px" y="1600px" width="540px" height="800px" xlink:href="./output/card28.jpg"/><image x="4860px" y="1600px" width="540px" height="800px" xlink:href="./output/card29.jpg"/><image x="0px" y="2400px" width="540px" height="800px" xlink:href="./output/card30.jpg"/><image x="540px" y="2400px" width="540px" height="800px" xlink:href="./output/card31.jpg"/><image x="1080px" y="2400px" width="540px" height="800px" xlink:href="./output/card32.jpg"/><image x="1620px" y="2400px" width="540px" height="800px" xlink:href="./output/card33.jpg"/><image x="2160px" y="2400px" width="540px" height="800px" xlink:href="./output/card34.jpg"/><image x="2700px" y="2400px" width="540px" height="800px" xlink:href="./output/card35.jpg"/><image x="3240px" y="2400px" width="540px" height="800px" xlink:href="./output/card36.jpg"/><image x="3780px" y="2400px" width="540px" height="800px" xlink:href="./output/card37.jpg"/><image x="4320px" y="2400px" width="540px" height="800px" xlink:href="./output/card38.jpg"/><image x="4860px" y="2400px" width="540px" height="800px" xlink:href="./output/card39.jpg"/><image x="0px" y="3200px" width="540px" height="800px" xlink:href="./output/card40.jpg"/><image x="540px" y="3200px" width="540px" height="800px" xlink:href="./output/card41.jpg"/><image x="1080px" y="3200px" width="540px" height="800px" xlink:href="./output/card42.jpg"/><image x="1620px" y="3200px" width="540px" height="800px" xlink:href="./output/card43.jpg"/><image x="2160px" y="3200px" width="540px" height="800px" xlink:href="./output/card44.jpg"/><image x="2700px" y="3200px" width="540px" height="800px" xlink:href="./output/card45.jpg"/><image x="3240px" y="3200px" width="540px" height="800px" xlink:href="./output/card46.jpg"/><image x="3780px" y="3200px" width="540px" height="800px" xlink:href="./output/card47.jpg"/><image x="4320px" y="3200px" width="540px" height="800px" xlink:href="./output/card48.jpg"/><image x="4860px" y="3200px" width="540px" height="800px" xlink:href="./output/card49.jpg"/><image x="0px" y="4000px" width="540px" height="800px" xlink:href="./output/card50.jpg"/><image x="540px" y="4000px" width="540px" height="800px" xlink:href="./output/card51.jpg"/><image x="1080px" y="4000px" width="540px" height="800px" xlink:href="./output/card52.jpg"/><image x="1620px" y="4000px" width="540px" height="800px" xlink:href="./output/card53.jpg"/><image x="2160px" y="4000px" width="540px" height="800px" xlink:href="./output/card54.jpg"/><image x="2700px" y="4000px" width="540px" height="800px" xlink:href="./output/card55.jpg"/><image x="3240px" y="4000px" width="540px" height="800px" xlink:href="./output/card56.jpg"/><image x="3780px" y="4000px" width="540px" height="800px" xlink:href="./output/card57.jpg"/><image x="4320px" y="4000px" width="540px" height="800px" xlink:href="./output/card58.jpg"/><image x="4860px" y="4000px" width="540px" height="800px" xlink:href="./output/card59.jpg"/><image x="0px" y="4800px" width="540px" height="800px" xlink:href="./output/card60.jpg"/><image x="540px" y="4800px" width="540px" height="800px" xlink:href="./output/card61.jpg"/><image x="1080px" y="4800px" width="540px" height="800px" xlink:href="./output/card62.jpg"/><image x="1620px" y="4800px" width="540px" height="800px" xlink:href="./output/card63.jpg"/><image x="2160px" y="4800px" width="540px" height="800px" xlink:href="./output/card64.jpg"/><image x="2700px" y="4800px" width="540px" height="800px" xlink:href="./output/card65.jpg"/><image x="3240px" y="4800px" width="540px" height="800px" xlink:href="./output/card66.jpg"/><image x="3780px" y="4800px" width="540px" height="800px" xlink:href="./output/card67.jpg"/><image x="4320px" y="4800px" width="540px" height="800px" xlink:href="./output/card68.jpg"/>
</svg>
